<?xml version="1.0" encoding="UTF-8"?><svg id="Layer_1" xmlns="http://www.w3.org/2000/svg" preserveAspectRatio="none" xmlns:xlink="http://www.w3.org/1999/xlink" viewBox="0 0 410 410"><defs><style>.cls-1{stroke:#c5bfbf;stroke-width:.5px;}.cls-1,.cls-2{fill:none;}.cls-3{clip-path:url(#clippath-1);}.cls-4{fill:#a29494;}.cls-5{clip-path:url(#clippath);}.cls-6{fill:#d9d9d9;}</style><clipPath id="clippath"><rect class="cls-2" y="0" width="410" height="410"/></clipPath><clipPath id="clippath-1"><rect class="cls-2" x="30" y="30" width="351" height="351"/></clipPath></defs><g class="cls-5"><path class="cls-6" d="M410,410H0V0h410v410Z"/><g class="cls-3"><rect class="cls-6" x="30" y="30" width="351" height="351"/><rect class="cls-1" x="30" y="30" width="23.33" height="23.33"/><rect class="cls-1" x="53.33" y="30" width="23.33" height="23.33"/><rect class="cls-1" x="76.67" y="30" width="23.33" height="23.33"/><rect class="cls-1" x="100" y="30" width="23.33" height="23.33"/><rect class="cls-1" x="123.33" y="30" width="23.33" height="23.33"/><rect class="cls-1" x="146.67" y="30" width="23.33" height="23.33"/><rect class="cls-1" x="170" y="30" width="23.33" height="23.33"/><rect class="cls-1" x="193.33" y="30" width="23.33" height="23.33"/><rect class="cls-1" x="216.67" y="30" width="23.33" height="23.33"/><rect class="cls-1" x="240" y="30" width="23.33" height="23.33"/><rect class="cls-1" x="263.33" y="30" width="23.33" height="23.33"/><rect class="cls-1" x="286.67" y="30" width="23.33" height="23.33"/><rect class="cls-1" x="310" y="30" width="23.33" height="23.33"/><rect class="cls-1" x="333.33" y="30" width="23.33" height="23.33"/><rect class="cls-1" x="356.67" y="30" width="23.33" height="23.33"/><rect class="cls-1" x="30" y="53.33" width="23.33" height="23.33"/><rect class="cls-1" x="53.33" y="53.33" width="23.33" height="23.33"/><rect class="cls-1" x="76.67" y="53.33" width="23.33" height="23.33"/><rect class="cls-1" x="100" y="53.33" width="23.33" height="23.33"/><rect class="cls-1" x="123.33" y="53.33" width="23.33" height="23.33"/><rect class="cls-1" x="146.67" y="53.33" width="23.33" height="23.33"/><rect class="cls-1" x="170" y="53.33" width="23.33" height="23.33"/><rect class="cls-1" x="193.33" y="53.33" width="23.33" height="23.33"/><rect class="cls-1" x="216.67" y="53.33" width="23.33" height="23.33"/><rect class="cls-1" x="240" y="53.33" width="23.33" height="23.33"/><rect class="cls-1" x="263.33" y="53.33" width="23.33" height="23.33"/><rect class="cls-1" x="286.67" y="53.33" width="23.33" height="23.33"/><rect class="cls-1" x="310" y="53.33" width="23.33" height="23.33"/><rect class="cls-1" x="333.33" y="53.33" width="23.33" height="23.33"/><rect class="cls-1" x="356.67" y="53.33" width="23.33" height="23.33"/><rect class="cls-1" x="30" y="76.67" width="23.33" height="23.33"/><rect class="cls-1" x="53.33" y="76.67" width="23.33" height="23.33"/><rect class="cls-1" x="76.67" y="76.67" width="23.33" height="23.33"/><rect class="cls-1" x="100" y="76.67" width="23.33" height="23.33"/><rect class="cls-1" x="123.33" y="76.67" width="23.33" height="23.33"/><rect class="cls-1" x="146.67" y="76.67" width="23.33" height="23.33"/><rect class="cls-1" x="170" y="76.67" width="23.33" height="23.33"/><rect class="cls-1" x="193.33" y="76.67" width="23.33" height="23.33"/><rect class="cls-1" x="216.67" y="76.67" width="23.33" height="23.33"/><rect class="cls-1" x="240" y="76.67" width="23.33" height="23.33"/><rect class="cls-1" x="263.33" y="76.67" width="23.33" height="23.33"/><rect class="cls-1" x="286.67" y="76.67" width="23.33" height="23.33"/><rect class="cls-1" x="310" y="76.67" width="23.33" height="23.33"/><rect class="cls-1" x="333.33" y="76.67" width="23.33" height="23.33"/><rect class="cls-1" x="356.67" y="76.67" width="23.33" height="23.33"/><rect class="cls-1" x="30" y="100" width="23.33" height="23.33"/><rect class="cls-1" x="53.33" y="100" width="23.33" height="23.33"/><rect class="cls-1" x="76.67" y="100" width="23.33" height="23.33"/><rect class="cls-1" x="100" y="100" width="23.33" height="23.33"/><rect class="cls-1" x="123.33" y="100" width="23.33" height="23.33"/><rect class="cls-1" x="146.67" y="100" width="23.33" height="23.33"/><rect class="cls-1" x="170" y="100" width="23.33" height="23.33"/><rect class="cls-1" x="193.33" y="100" width="23.33" height="23.33"/><rect class="cls-1" x="216.67" y="100" width="23.33" height="23.33"/><rect class="cls-1" x="240" y="100" width="23.33" height="23.33"/><rect class="cls-1" x="263.33" y="100" width="23.33" height="23.33"/><rect class="cls-1" x="286.67" y="100" width="23.33" height="23.33"/><rect class="cls-1" x="310" y="100" width="23.33" height="23.33"/><rect class="cls-1" x="333.33" y="100" width="23.33" height="23.33"/><rect class="cls-1" x="356.67" y="100" width="23.33" height="23.33"/><rect class="cls-1" x="30" y="123.33" width="23.33" height="23.33"/><rect class="cls-1" x="53.33" y="123.33" width="23.33" height="23.33"/><rect class="cls-1" x="76.67" y="123.33" width="23.33" height="23.33"/><rect class="cls-1" x="100" y="123.33" width="23.33" height="23.33"/><rect class="cls-1" x="123.33" y="123.33" width="23.33" height="23.33"/><rect class="cls-1" x="146.67" y="123.33" width="23.33" height="23.33"/><rect class="cls-1" x="170" y="123.33" width="23.33" height="23.33"/><rect class="cls-1" x="193.33" y="123.33" width="23.33" height="23.33"/><rect class="cls-1" x="216.67" y="123.33" width="23.33" height="23.33"/><rect class="cls-1" x="240" y="123.33" width="23.33" height="23.33"/><rect class="cls-1" x="263.33" y="123.33" width="23.33" height="23.33"/><rect class="cls-1" x="286.67" y="123.33" width="23.33" height="23.33"/><rect class="cls-1" x="310" y="123.33" width="23.33" height="23.33"/><rect class="cls-1" x="333.33" y="123.33" width="23.33" height="23.33"/><rect class="cls-1" x="356.67" y="123.33" width="23.33" height="23.33"/><rect class="cls-1" x="30" y="146.67" width="23.33" height="23.33"/><rect class="cls-1" x="53.33" y="146.67" width="23.33" height="23.33"/><rect class="cls-1" x="76.67" y="146.67" width="23.33" height="23.33"/><rect class="cls-1" x="100" y="146.67" width="23.33" height="23.33"/><rect class="cls-1" x="123.33" y="146.67" width="23.33" height="23.33"/><rect class="cls-1" x="146.67" y="146.67" width="23.33" height="23.33"/><rect class="cls-1" x="170" y="146.67" width="23.33" height="23.33"/><rect class="cls-1" x="193.33" y="146.67" width="23.33" height="23.33"/><rect class="cls-1" x="216.67" y="146.67" width="23.33" height="23.33"/><rect class="cls-1" x="240" y="146.67" width="23.33" height="23.33"/><rect class="cls-1" x="263.33" y="146.67" width="23.33" height="23.33"/><rect class="cls-1" x="286.67" y="146.67" width="23.33" height="23.33"/><rect class="cls-1" x="310" y="146.67" width="23.33" height="23.33"/><rect class="cls-1" x="333.33" y="146.67" width="23.33" height="23.33"/><rect class="cls-1" x="356.67" y="146.67" width="23.33" height="23.33"/><rect class="cls-1" x="30" y="170" width="23.33" height="23.33"/><rect class="cls-1" x="53.33" y="170" width="23.33" height="23.33"/><rect class="cls-1" x="76.67" y="170" width="23.33" height="23.33"/><rect class="cls-1" x="100" y="170" width="23.33" height="23.33"/><rect class="cls-1" x="123.33" y="170" width="23.33" height="23.33"/><rect class="cls-1" x="146.67" y="170" width="23.33" height="23.33"/><rect class="cls-1" x="170" y="170" width="23.33" height="23.33"/><rect class="cls-1" x="193.33" y="170" width="23.33" height="23.33"/><rect class="cls-1" x="216.67" y="170" width="23.33" height="23.33"/><rect class="cls-1" x="240" y="170" width="23.33" height="23.33"/><rect class="cls-1" x="263.33" y="170" width="23.33" height="23.33"/><rect class="cls-1" x="286.67" y="170" width="23.33" height="23.33"/><rect class="cls-1" x="310" y="170" width="23.33" height="23.33"/><rect class="cls-1" x="333.33" y="170" width="23.33" height="23.33"/><rect class="cls-1" x="356.67" y="170" width="23.33" height="23.33"/><rect class="cls-1" x="30" y="193.33" width="23.33" height="23.33"/><rect class="cls-1" x="53.33" y="193.33" width="23.33" height="23.33"/><rect class="cls-1" x="76.67" y="193.33" width="23.33" height="23.33"/><rect class="cls-1" x="100" y="193.33" width="23.33" height="23.33"/><rect class="cls-1" x="123.33" y="193.33" width="23.33" height="23.33"/><rect class="cls-1" x="146.67" y="193.33" width="23.33" height="23.33"/><rect class="cls-1" x="170" y="193.33" width="23.33" height="23.33"/><rect class="cls-1" x="193.33" y="193.33" width="23.33" height="23.33"/><rect class="cls-1" x="216.67" y="193.33" width="23.33" height="23.33"/><rect class="cls-1" x="240" y="193.33" width="23.33" height="23.33"/><rect class="cls-1" x="263.33" y="193.33" width="23.33" height="23.33"/><rect class="cls-1" x="286.67" y="193.33" width="23.33" height="23.33"/><rect class="cls-1" x="310" y="193.33" width="23.33" height="23.33"/><rect class="cls-1" x="333.33" y="193.33" width="23.33" height="23.33"/><rect class="cls-1" x="356.67" y="193.33" width="23.33" height="23.33"/><rect class="cls-1" x="30" y="216.67" width="23.33" height="23.33"/><rect class="cls-1" x="53.33" y="216.67" width="23.33" height="23.33"/><rect class="cls-1" x="76.67" y="216.67" width="23.33" height="23.33"/><rect class="cls-1" x="100" y="216.67" width="23.33" height="23.33"/><rect class="cls-1" x="123.33" y="216.67" width="23.33" height="23.33"/><rect class="cls-1" x="146.67" y="216.67" width="23.33" height="23.33"/><rect class="cls-1" x="170" y="216.67" width="23.33" height="23.33"/><rect class="cls-1" x="193.33" y="216.67" width="23.33" height="23.33"/><rect class="cls-1" x="216.67" y="216.67" width="23.33" height="23.33"/><rect class="cls-1" x="240" y="216.67" width="23.33" height="23.33"/><rect class="cls-1" x="263.33" y="216.67" width="23.33" height="23.33"/><rect class="cls-1" x="286.67" y="216.67" width="23.33" height="23.33"/><rect class="cls-1" x="310" y="216.67" width="23.33" height="23.33"/><rect class="cls-1" x="333.33" y="216.67" width="23.33" height="23.33"/><rect class="cls-1" x="356.67" y="216.67" width="23.33" height="23.33"/><rect class="cls-1" x="30" y="240" width="23.33" height="23.33"/><rect class="cls-1" x="53.33" y="240" width="23.33" height="23.33"/><rect class="cls-1" x="76.67" y="240" width="23.33" height="23.33"/><rect class="cls-1" x="100" y="240" width="23.33" height="23.33"/><rect class="cls-1" x="123.33" y="240" width="23.33" height="23.33"/><rect class="cls-1" x="146.67" y="240" width="23.33" height="23.33"/><rect class="cls-1" x="170" y="240" width="23.33" height="23.33"/><rect class="cls-1" x="193.33" y="240" width="23.33" height="23.33"/><rect class="cls-1" x="216.67" y="240" width="23.33" height="23.33"/><rect class="cls-1" x="240" y="240" width="23.33" height="23.33"/><rect class="cls-1" x="263.33" y="240" width="23.33" height="23.33"/><rect class="cls-1" x="286.67" y="240" width="23.33" height="23.33"/><rect class="cls-1" x="310" y="240" width="23.33" height="23.33"/><rect class="cls-1" x="333.33" y="240" width="23.33" height="23.33"/><rect class="cls-1" x="356.67" y="240" width="23.33" height="23.33"/><rect class="cls-1" x="30" y="263.33" width="23.33" height="23.33"/><rect class="cls-1" x="53.33" y="263.33" width="23.33" height="23.33"/><rect class="cls-1" x="76.67" y="263.33" width="23.33" height="23.33"/><rect class="cls-1" x="100" y="263.33" width="23.33" height="23.33"/><rect class="cls-1" x="123.33" y="263.33" width="23.33" height="23.33"/><rect class="cls-1" x="146.67" y="263.33" width="23.33" height="23.33"/><rect class="cls-1" x="170" y="263.33" width="23.33" height="23.33"/><rect class="cls-1" x="193.33" y="263.33" width="23.33" height="23.33"/><rect class="cls-1" x="216.67" y="263.33" width="23.33" height="23.33"/><rect class="cls-1" x="240" y="263.33" width="23.33" height="23.33"/><rect class="cls-1" x="263.33" y="263.33" width="23.33" height="23.33"/><rect class="cls-1" x="286.67" y="263.33" width="23.33" height="23.33"/><rect class="cls-1" x="310" y="263.33" width="23.33" height="23.33"/><rect class="cls-1" x="333.33" y="263.33" width="23.33" height="23.33"/><rect class="cls-1" x="356.67" y="263.33" width="23.33" height="23.33"/><rect class="cls-1" x="30" y="286.67" width="23.33" height="23.33"/><rect class="cls-1" x="53.33" y="286.67" width="23.33" height="23.33"/><rect class="cls-1" x="76.67" y="286.67" width="23.33" height="23.33"/><rect class="cls-1" x="100" y="286.67" width="23.33" height="23.33"/><rect class="cls-1" x="123.33" y="286.67" width="23.33" height="23.33"/><rect class="cls-1" x="146.67" y="286.67" width="23.33" height="23.33"/><rect class="cls-1" x="170" y="286.67" width="23.33" height="23.33"/><rect class="cls-1" x="193.33" y="286.67" width="23.33" height="23.33"/><rect class="cls-1" x="216.67" y="286.67" width="23.33" height="23.33"/><rect class="cls-1" x="240" y="286.67" width="23.33" height="23.33"/><rect class="cls-1" x="263.33" y="286.67" width="23.33" height="23.33"/><rect class="cls-1" x="286.67" y="286.67" width="23.33" height="23.33"/><rect class="cls-1" x="310" y="286.67" width="23.33" height="23.33"/><rect class="cls-1" x="333.33" y="286.67" width="23.33" height="23.33"/><rect class="cls-1" x="356.67" y="286.67" width="23.33" height="23.33"/><rect class="cls-1" x="30" y="310" width="23.33" height="23.33"/><rect class="cls-1" x="53.33" y="310" width="23.33" height="23.33"/><rect class="cls-1" x="76.67" y="310" width="23.33" height="23.33"/><rect class="cls-1" x="100" y="310" width="23.33" height="23.33"/><rect class="cls-1" x="123.33" y="310" width="23.33" height="23.33"/><rect class="cls-1" x="146.67" y="310" width="23.33" height="23.33"/><rect class="cls-1" x="170" y="310" width="23.33" height="23.33"/><rect class="cls-1" x="193.33" y="310" width="23.33" height="23.33"/><rect class="cls-1" x="216.67" y="310" width="23.33" height="23.33"/><rect class="cls-1" x="240" y="310" width="23.33" height="23.33"/><rect class="cls-1" x="263.33" y="310" width="23.33" height="23.33"/><rect class="cls-1" x="286.67" y="310" width="23.33" height="23.33"/><rect class="cls-1" x="310" y="310" width="23.33" height="23.33"/><rect class="cls-1" x="333.33" y="310" width="23.33" height="23.33"/><rect class="cls-1" x="356.67" y="310" width="23.33" height="23.33"/><rect class="cls-1" x="30" y="333.33" width="23.33" height="23.33"/><rect class="cls-1" x="53.33" y="333.33" width="23.33" height="23.33"/><rect class="cls-1" x="76.67" y="333.33" width="23.33" height="23.33"/><rect class="cls-1" x="100" y="333.33" width="23.33" height="23.33"/><rect class="cls-1" x="123.33" y="333.33" width="23.33" height="23.33"/><rect class="cls-1" x="146.67" y="333.33" width="23.33" height="23.33"/><rect class="cls-1" x="170" y="333.33" width="23.33" height="23.33"/><rect class="cls-1" x="193.33" y="333.33" width="23.33" height="23.33"/><rect class="cls-1" x="216.67" y="333.33" width="23.33" height="23.33"/><rect class="cls-1" x="240" y="333.33" width="23.33" height="23.33"/><rect class="cls-1" x="263.33" y="333.33" width="23.33" height="23.33"/><rect class="cls-1" x="286.67" y="333.33" width="23.33" height="23.33"/><rect class="cls-1" x="310" y="333.33" width="23.33" height="23.33"/><rect class="cls-1" x="333.33" y="333.33" width="23.33" height="23.33"/><rect class="cls-1" x="356.67" y="333.33" width="23.33" height="23.33"/><rect class="cls-1" x="30" y="356.67" width="23.33" height="23.33"/><rect class="cls-1" x="53.33" y="356.67" width="23.33" height="23.33"/><rect class="cls-1" x="76.67" y="356.67" width="23.33" height="23.33"/><rect class="cls-1" x="100" y="356.67" width="23.33" height="23.33"/><rect class="cls-1" x="123.33" y="356.67" width="23.33" height="23.33"/><rect class="cls-1" x="146.67" y="356.67" width="23.33" height="23.33"/><rect class="cls-1" x="170" y="356.67" width="23.33" height="23.33"/><rect class="cls-1" x="193.33" y="356.67" width="23.33" height="23.33"/><rect class="cls-1" x="216.67" y="356.67" width="23.33" height="23.33"/><rect class="cls-1" x="240" y="356.67" width="23.33" height="23.33"/><rect class="cls-1" x="263.33" y="356.67" width="23.33" height="23.33"/><rect class="cls-1" x="286.67" y="356.67" width="23.33" height="23.33"/><rect class="cls-1" x="310" y="356.67" width="23.33" height="23.33"/><rect class="cls-1" x="333.33" y="356.67" width="23.33" height="23.33"/><rect class="cls-1" x="356.67" y="356.67" width="23.33" height="23.33"/></g><path class="cls-1" d="M30,410V0"/><path class="cls-1" d="M380,410V0"/><path class="cls-1" d="M0,30h410"/><path class="cls-1" d="M0,380h410"/><rect class="cls-4" x="29" y="373" width="2" height="14"/><rect class="cls-4" x="23" y="379" width="14" height="2"/><rect class="cls-4" x="379" y="373" width="2" height="14"/><rect class="cls-4" x="373" y="379" width="14" height="2"/><rect class="cls-4" x="379" y="23" width="2" height="14"/><rect class="cls-4" x="373" y="29" width="14" height="2"/><rect class="cls-4" x="29" y="23" width="2" height="14"/><rect class="cls-4" x="23" y="29" width="14" height="2"/></g><path d="M248.14,275.71c-3.04.96-6.78-.23-10,.58-4.99,1.26-9.61,6.2-14.74,6.31s-10.17-3.68-15.16-4.84-10.79-.84-15.26-3.4c-4.4-2.52-8.21-6.52-11.72-10.48-2.8-3.16-6.75-5.98-8.65-9.68s-.39-8.95-1.46-13c-1.07-4.04-1.8-8.02-2.12-12.18-.48-6.25-2.91-12.68-1.34-18.32s4.77-11.27,7.73-16.67c.29-.53,3.89-3.5,2.55-4.62s-4.69,1.63-5.16,2c-3.47,2.72-6.19,6.51-9.18,10.09s-5.99,7.07-8.11,10.93l-.51-.28c-2.08,3.79-3.01,8.19-4.8,12.16s-6.45,7.04-7.63,11.21c-1.18,4.18.69,9.11.44,13.49-.23,4.15-.38,8.44.24,12.75s.68,8.72,2.06,12.75,4.35,7.58,6.51,11.15c2.48,4.09,5.35,7.55,8.63,10.53,3.44,3.13,6.6,6.83,10.69,8.83s9.46,0,13.98.97c4.43.95,8.48,3.48,13.11,3.53s9.43,1.91,13.98,1.17,8.95-2.48,12.85-4.35,5.55-7.45,9-10.18,10.02-2.11,13-5.34,1.6-10.14,4.2-13.6c2.96-3.93,7.99-6.18,10.07-10.35,2.15-4.31,5.52-8.45,6.62-13.11s1.57-9.74,1.52-14.71c-.05-5.35-4.26-10.21-5.41-15.3s-.28-10.94-2.4-15.77-4.54-9.72-7.41-14.17-7.89-7.28-11.33-11.28-5.29-9.63-9.14-13.18c-3.37-3.1-7.19-5.9-10.83-8.65s-8.82-3.69-12.13-6.8-7.62-6.04-9.94-10.15-2.59-9.1-3.66-13.55-.11-9.1,0-13.62,2.27-8.42,3.61-12.69c2.37-7.54-8.3.44-9.97,2-2.89,2.71-6.04,6.02-8.98,9.65s-6.61,6.72-7.83,10.63c-1.54,4.91.44,10.31.12,15.53s-.69,9.86.32,14.94,1.18,10.2,3.67,14.76,3.88,10.32,7.88,13.85c4.23,3.73,9.71,5.97,14.14,9.36s8.64,6.89,12.59,10.97c3.98,4.12,7.31,8.8,10.78,13.47s9.38,7.9,12.1,12.95c1.92,3.58,3.47,7.74,4.71,11.58s2.48,8.09,3.07,12.1-1.63,8.37-1.69,12.42c-.07,4.98,1.24,10.62-.38,15.35"/><polygon points="211.25 232.86 202.64 224.28 210.47 216.66 205.53 209.05 196.41 221.41 194.01 238.16 191.99 255.2 199.82 269.4 210.21 256.93 212.54 239.91 212.88 232.9 211.25 232.86"/></svg>